<svg id="Layer_1" data-name="Layer 1" xmlns="http://www.w3.org/2000/svg" viewBox="0 0 1432.22 376"><defs><style>.cls-1{fill:#fff;}</style></defs><title>webflow-experts-white</title><path class="cls-1" d="M487.6,85.3,468,243.4l-4,19.5c.5,0,1.1.1,1.6.1,21.1-.3,36.1-18.8,38.9-42.1l11.3-90.7C519.2,102.5,502.7,85.3,487.6,85.3Z"/><path class="cls-1" d="M465.6,136.7H442.3l.1-1.2c1.6-15.2,5.2-23.2,17.1-24.5,8.1-.8,11.7-5,12.6-9.6.7-3.6,2.9-16.1,2.9-16.1-46.8-.3-61.5,19.9-65.3,50.7l-.1.7h-.5c-7.6,0-16,8.6-17.4,19.5l-.5,4h15.6L393.7,268.4l-4,19.4c.5,0,1.1.1,1.6.1,21.9-.8,35.9-18.1,39-43.2l10.2-84.5h7.3c7.2,0,15.6-7.2,17.1-19.2Z"/><path class="cls-1" d="M123.5,170.4s-13.5,42.4-14.6,45.9c-.4-3.6-10.3-79.7-10.3-79.7-23,0-35.3,16.4-41.8,33.7,0,0-16.4,42.5-17.8,46.1-.1-3.3-2.5-45.6-2.5-45.6C35.1,149.6,15.7,136.7,0,136.7L19,252c24.1-.1,37.1-16.4,43.9-33.7,0,0,14.5-37.5,15.1-39.2.1,1.6,10.4,72.9,10.4,72.9,24.2,0,37.2-15.3,44.2-32l33.9-83.3C142.6,136.7,130,153,123.5,170.4Z"/><path class="cls-1" d="M349.8,134c-14.9,0-26.3,8.1-35.9,20v-.1l8.6-69.3c-19.8,0-35.9,17.2-39,42.8l-15,123.7c11.4,0,23.5-3.3,30-11.7a33.22,33.22,0,0,0,27.4,13.5c33.4,0,56.3-38.8,56.3-75.2C382,144.5,365.9,134,349.8,134Zm-3.1,59.5c-3.5,20.3-14.8,34.1-25.7,34.1s-15.7-4.9-15.7-4.9c2.1-17.8,3.4-28.7,7.4-38.1s13.5-24.4,23.4-24.4C345.8,160.2,350.2,173.1,346.7,193.5Z"/><path class="cls-1" d="M261,164.1c0-14.5-14.1-29.9-38.5-29.9-27.4,0-57.5,20.1-62.1,60.2-4.7,40.5,20.5,58.5,45.9,58.5s38.7-9.9,52.3-23.1c-11.7-14.7-26.8-7.9-29.7-6.4a30.4,30.4,0,0,1-15.7,3.8c-9.8,0-19.8-4.4-19.8-22.7C256.2,198.3,261,178.6,261,164.1Zm-31.1,2.4c-.4,4.5-2.2,12.2-34,16.5,6.7-23.8,19.5-25.6,25.4-25.6A8.31,8.31,0,0,1,229.9,166.5Z"/><path class="cls-1" d="M765.5,170.4s-13.5,42.4-14.6,45.9c-.4-3.6-10.3-79.7-10.3-79.7-23,0-35.3,16.4-41.8,33.7,0,0-16.4,42.5-17.8,46.1-.1-3.3-2.5-45.6-2.5-45.6-1.4-21.2-20.8-34.1-36.5-34.1L660.9,252c24.1-.1,37.1-16.4,43.9-33.7,0,0,14.5-37.5,15-39.2.1,1.6,10.4,72.9,10.4,72.9,24.2,0,37.2-15.3,44.2-32l33.9-83.3C784.5,136.7,771.9,153,765.5,170.4Z"/><path class="cls-1" d="M586.8,134.7c-26.9,0-52.3,19.8-60.1,50.9s4,67.9,43.6,67.9,62.3-38.3,62.3-70.2C632.6,151.6,611.1,134.7,586.8,134.7Zm10.9,57.8c-1.4,14.1-7.6,35.5-24.6,35.5s-14.7-25-13-36.9c1.8-12.7,8.9-30.8,24.2-30.8C598,160.3,599.3,176.6,597.7,192.5Z"/><polygon class="cls-1" points="905.66 196.13 948.23 196.13 948.23 184.76 905.66 184.76 905.66 145.88 958.47 145.88 958.47 134.52 891.74 134.52 891.74 248.93 961.35 248.93 961.35 237.56 905.66 237.56 905.66 196.13"/><polygon class="cls-1" points="1045.82 165.24 1031.42 165.24 1011.1 195.65 990.62 165.24 975.1 165.24 1003.1 205.88 973.18 248.93 987.42 248.93 1010.46 215.16 1033.02 248.93 1048.7 248.93 1018.14 204.93 1045.82 165.24"/><path class="cls-1" d="M1108.22,163.8c-12.16,0-23.52,7.36-28.32,15.52V165.24h-13.28V278h13.28V235.17c4.8,8.32,14.56,15.2,28.32,15.2,23,0,38.08-17.6,38.08-43.2v-1.28C1146.3,179.8,1130.14,163.8,1108.22,163.8Zm24.32,44c0,20.32-9,31.52-25.6,31.52-16.32,0-27.52-10.08-27.52-31.52v-1.28c0-21.44,11.84-31.68,27.36-31.68,14.08,0,25.76,10.56,25.76,31.68Z"/><path class="cls-1" d="M1199.9,163.8c-23,0-39.2,17.6-39.2,42.88V208c0,25.76,16.8,42.4,40.48,42.4,18.88,0,32.8-8.8,35.68-25.6h-13.28c-1.76,9.76-9.28,14.56-22.24,14.56-17.12,0-26.24-10.56-26.88-29.6h63V205.4C1237.5,175.48,1219.26,163.8,1199.9,163.8Zm-25,35.2c2.24-14.88,11.36-24.16,25-24.16,13.76,0,22.72,6.88,24,24.16Z"/><path class="cls-1" d="M1271.1,180.28v-15h-13.28v83.68h13.28V203c0-20.64,10.72-25.92,27.52-26.72V163.8C1283.58,164.28,1276.38,170.84,1271.1,180.28Z"/><path class="cls-1" d="M1334.94,226.69V176.44h19.52v-11.2h-19.52v-19h-13.28v19h-12v11.2h12V228c0,13.12,7.36,22.08,22.56,22.08a31.65,31.65,0,0,0,11.36-1.76v-11.2a27.35,27.35,0,0,1-10.24,1.76C1338.62,238.85,1334.94,234.85,1334.94,226.69Z"/><path class="cls-1" d="M1402.78,200.13c-15.36-2.72-19.52-5.76-19.52-13.28,0-7.2,6.24-12,15.84-12,10.56,0,15.68,4,17.6,13.12h12.8c-2.24-18.08-15.2-24.16-30.24-24.16-13.12,0-28.32,8-28.32,23.52,0,14.56,7.36,20.64,29.12,24.64,13,2.4,19.52,5.28,19.52,14.08,0,9-5.6,13.28-18.24,13.28-13.44,0-18.72-6.24-19.68-16.16h-13c.8,17.12,12.8,27.2,32.8,27.2,20.32,0,30.72-10.24,30.72-25.44C1432.22,207.17,1420.06,203.33,1402.78,200.13Z"/></svg>